<?xml version="1.0" encoding="UTF-8"?>
<!DOCTYPE svg PUBLIC "-//W3C//DTD SVG 1.1//EN" "http://www.w3.org/Graphics/SVG/1.1/DTD/svg11.dtd">
<!-- Creator: CorelDRAW -->
<svg xmlns="http://www.w3.org/2000/svg" xml:space="preserve" width="2048px" height="2048px" style="shape-rendering:geometricPrecision; text-rendering:geometricPrecision; image-rendering:optimizeQuality; fill-rule:evenodd; clip-rule:evenodd"
viewBox="0 0 2048 2048"
 xmlns:xlink="http://www.w3.org/1999/xlink">
 <defs>
  <style type="text/css">
   <![CDATA[
    .fil3 {fill:none}
    .fil1 {fill:#008000}
    .fil0 {fill:#008000}
    .fil2 {fill:#FFFDE7}
   ]]>
  </style>
 </defs>
 <g id="Layer_x0020_1">
  <metadata id="CorelCorpID_0Corel-Layer"/>
  <path class="fil0" d="M1024 1792c-424.158,0 -768.002,-343.844 -768.002,-768.002 0,-424.158 343.844,-768.002 768.002,-768.002l0 1536z"/>
  <path class="fil1" d="M1024 255.998c0.366142,0 0.731103,0.0129921 1.09724,0.0141732 423.652,0.592914 766.905,344.196 766.905,767.988 0,424.129 -343.799,767.955 -767.918,768.001l-0.0838583 0.0011811 0 -1536z"/>
  <path class="fil2" d="M1410.92 1199.43c7.11024,-16.0843 -0.165354,-34.8898 -16.2496,-42 -16.0843,-7.11024 -34.8898,0.165354 -42,16.2496 -34.2733,77.1308 -94.9394,131.607 -166.462,163.388 -50.2288,22.3181 -106.077,33.4796 -162.209,33.4796 -56.1319,0 -111.98,-11.1602 -162.209,-33.4796 -71.5217,-31.7811 -132.189,-86.2572 -166.462,-163.388 -7.11024,-16.0843 -25.9158,-23.3599 -42,-16.2496 -16.0843,7.11024 -23.3599,25.9158 -16.2496,42 41.1933,92.706 113.679,157.991 198.962,195.887 58.8579,26.1544 123.553,39.2315 187.96,39.2315 64.4067,0 129.102,-13.0784 187.96,-39.2315 85.2851,-37.8957 157.768,-103.182 198.962,-195.887z"/>
  <path class="fil2" d="M1282.33 755.492c42.254,0 76.5071,34.2544 76.5071,76.5071 0,42.2528 -34.2532,76.5071 -76.5071,76.5071 -42.2528,0 -76.5071,-34.2544 -76.5071,-76.5071 0,-42.2528 34.2544,-76.5071 76.5071,-76.5071z"/>
  <path class="fil2" d="M765.66 755.492c42.2528,0 76.5071,34.2544 76.5071,76.5071 0,42.2528 -34.2544,76.5071 -76.5071,76.5071 -42.2528,0 -76.5071,-34.2544 -76.5071,-76.5071 0,-42.2528 34.2544,-76.5071 76.5071,-76.5071z"/>
  <rect class="fil3" width="2048" height="2048"/>
  <rect class="fil3" x="255.999" y="255.999" width="1536" height="1536"/>
  <path class="fil3" d="M1381.8 1186.56c-127.969,287.991 -587.624,287.991 -715.593,0"/>
 </g>
</svg>
